<?xml version="1.0" standalone="no"?>
<!DOCTYPE svg PUBLIC "-//W3C//DTD SVG 20010904//EN"
 "http://www.w3.org/TR/2001/REC-SVG-20010904/DTD/svg10.dtd">
<svg version="1.0" xmlns="http://www.w3.org/2000/svg"
 width="4000.000000pt" height="1869.000000pt" viewBox="0 0 4000.000000 1869.000000"
 preserveAspectRatio="xMidYMid meet">

<g transform="translate(0.000000,1869.000000) scale(0.100000,-0.100000)"
fill="#000000" stroke="none">
<path d="M0 9345 l0 -9345 20000 0 20000 0 0 9345 0 9345 -20000 0 -20000 0 0
-9345z m5933 7071 c649 -106 1197 -376 1622 -801 149 -148 245 -269 338 -426
76 -126 119 -236 163 -410 20 -79 38 -145 39 -147 2 -2 49 17 106 41 300 128
581 186 843 173 670 -32 1220 -455 1439 -1106 131 -391 123 -818 -23 -1186
-114 -285 -323 -538 -586 -706 -199 -127 -570 -250 -901 -298 -46 -7 -83 -15
-83 -19 0 -4 43 -105 96 -226 53 -121 104 -245 114 -275 10 -30 32 -91 50
-135 95 -238 181 -513 253 -810 l44 -180 103 -135 c130 -169 194 -268 258
-395 111 -223 163 -416 163 -605 0 -263 -94 -483 -299 -702 -63 -68 -65 -71
-27 -49 508 300 1161 545 1915 719 321 75 589 120 945 159 232 26 843 26 1035
0 490 -66 801 -211 960 -449 101 -151 124 -359 60 -542 -229 -662 -1554 -1370
-3040 -1625 -380 -66 -682 -92 -1045 -92 -391 0 -608 21 -873 87 -135 33 -193
37 -206 15 -3 -4 8 -48 24 -98 27 -84 30 -105 36 -312 4 -121 4 -221 0 -221
-3 0 -74 57 -158 126 -83 70 -176 142 -206 161 -79 51 -211 110 -259 117 l-43
6 6 -32 c3 -18 19 -90 36 -161 l31 -127 -39 -57 c-62 -90 -136 -164 -231 -232
-48 -35 -94 -66 -101 -70 -13 -8 15 -82 123 -326 49 -111 191 -403 200 -413 2
-2 32 16 67 41 97 68 184 113 288 148 91 30 102 31 244 30 169 -1 246 -15 344
-64 119 -58 200 -155 248 -297 46 -137 1 -465 -103 -745 -118 -320 -435 -772
-762 -1088 -212 -204 -393 -333 -541 -383 -178 -60 -326 -68 -428 -24 -90 39
-222 198 -275 330 l-25 64 -104 44 c-161 68 -644 308 -847 421 -360 201 -740
443 -1032 656 -72 52 -136 95 -143 95 -16 0 -156 -90 -174 -113 -12 -14 -6
-24 40 -79 192 -226 354 -548 399 -793 31 -167 -50 -334 -197 -408 -187 -94
-486 -80 -797 37 -90 34 -178 80 -275 144 l-85 56 -28 -32 c-33 -37 -35 -36
-13 12 l17 34 -150 146 c-173 168 -253 237 -373 321 -344 240 -533 419 -575
545 -29 86 5 254 81 400 56 109 117 178 289 327 l140 121 33 88 c18 49 57 136
88 194 107 204 234 465 234 480 0 8 -28 69 -61 135 l-61 120 -261 27 c-143 15
-262 29 -263 31 -2 2 48 133 111 292 63 159 113 290 112 290 -1 1 -31 24 -67
52 -139 110 -255 250 -333 401 -125 241 -189 484 -188 717 0 350 146 652 467
970 l131 130 -70 55 c-157 123 -297 327 -368 537 -52 156 -64 233 -63 418 1
149 4 182 27 265 48 178 124 312 229 405 66 57 190 120 269 137 67 14 63 5 38
100 l-9 37 -83 -38 c-397 -184 -802 -188 -1109 -12 -258 147 -467 442 -564
796 -26 93 -28 114 -29 295 0 187 1 199 29 295 64 220 156 385 305 547 105
114 291 253 440 328 l65 32 -45 36 c-90 72 -326 320 -391 412 -203 285 -305
636 -277 955 50 571 437 1123 1147 1633 547 393 1068 598 1722 676 89 10 589
-3 683 -18z m12895 -3511 c634 -71 1106 -337 1347 -760 25 -44 45 -83 45 -87
0 -5 -88 -8 -194 -8 l-195 0 -30 63 c-114 236 -449 437 -878 526 -403 83 -853
37 -1165 -120 -268 -134 -480 -344 -617 -608 -139 -269 -198 -523 -208 -885
-9 -337 29 -587 129 -851 185 -488 590 -824 1122 -930 377 -75 781 -56 1111
52 97 31 261 107 367 169 l78 46 0 494 0 494 -310 0 -310 0 0 115 0 115 545 0
545 0 0 -855 0 -855 -235 0 -235 0 0 110 c0 61 -2 110 -4 110 -1 0 -46 -20
-99 -45 -183 -85 -486 -177 -692 -210 -343 -54 -797 -38 -1106 40 -464 118
-848 384 -1109 769 -259 382 -386 952 -325 1468 54 460 257 860 584 1145 278
244 641 405 1073 477 218 37 543 46 766 21z m17346 0 c273 -36 495 -117 682
-251 68 -49 194 -176 241 -244 69 -101 157 -330 135 -352 -5 -5 -89 -7 -187
-6 l-178 3 -19 79 c-73 310 -322 493 -733 537 -344 37 -677 -54 -859 -235
-116 -116 -166 -235 -166 -396 0 -198 74 -322 273 -454 180 -119 401 -218 807
-359 428 -148 664 -270 865 -446 186 -162 275 -301 322 -499 28 -121 25 -378
-6 -497 -115 -438 -462 -713 -1021 -807 -170 -28 -504 -31 -664 -5 -339 54
-619 175 -815 351 -175 156 -290 377 -315 604 l-7 62 188 -2 188 -3 7 -59 c19
-153 85 -309 175 -414 60 -70 153 -140 261 -195 175 -90 331 -121 612 -120
330 1 560 59 740 189 149 107 230 306 217 534 -11 179 -56 296 -160 407 -175
186 -428 324 -892 483 -499 172 -750 304 -939 495 -175 177 -238 335 -237 595
0 195 34 331 122 487 51 90 192 238 284 300 180 121 417 199 685 226 92 10
291 5 394 -8z m-13555 -55 c254 -16 388 -48 571 -139 278 -139 448 -347 519
-635 67 -273 11 -579 -149 -809 -161 -234 -424 -391 -705 -422 -126 -13 -130
-19 -47 -66 87 -49 156 -128 282 -323 220 -340 539 -816 609 -909 75 -100 181
-207 246 -250 22 -14 72 -38 110 -53 61 -23 85 -27 187 -28 l118 -1 0 -102 0
-102 -56 -20 c-153 -58 -421 -53 -585 10 -147 57 -280 166 -400 329 -59 80
-510 746 -674 995 -149 226 -251 317 -406 362 -38 10 -119 17 -271 20 l-218 5
0 -846 0 -846 -250 0 -250 0 0 1920 0 1920 603 0 c331 0 676 -5 766 -10z
m4906 -1885 c484 -1040 886 -1903 892 -1918 l13 -27 -268 0 -267 1 -261 562
-260 562 -945 3 -945 2 -240 -562 -241 -563 -127 -3 c-101 -2 -127 0 -123 10
11 27 1550 3667 1584 3746 l36 83 136 -3 136 -3 880 -1890z m3035 245 c483
-905 884 -1645 891 -1645 7 0 412 740 899 1645 l887 1645 189 0 189 0 3 -1917
2 -1918 -250 0 -250 0 0 1550 c0 1296 -2 1550 -14 1550 -7 0 -384 -680 -871
-1572 -472 -865 -862 -1579 -868 -1585 -5 -7 -30 -13 -56 -13 l-46 0 -847
1597 c-465 879 -851 1599 -857 1601 -8 3 -11 -433 -11 -1562 l0 -1566 -120 0
-120 0 0 1920 0 1920 186 -2 185 -3 879 -1645z m-19179 245 c64 -23 102 -57
157 -139 59 -87 89 -164 106 -261 12 -68 13 -69 23 -39 16 47 68 100 125 128
106 53 234 25 314 -68 124 -145 181 -328 163 -521 -19 -194 -109 -379 -311
-636 -96 -123 -123 -177 -122 -249 0 -73 28 -124 100 -186 107 -92 130 -120
144 -169 11 -39 11 -57 1 -94 -37 -138 -170 -190 -303 -119 -71 38 -185 141
-244 221 l-43 58 -20 -39 c-53 -104 -163 -137 -274 -83 -153 75 -295 265 -335
450 l-17 81 -75 -95 c-103 -130 -135 -193 -134 -264 0 -75 28 -126 105 -193
105 -90 125 -114 139 -163 34 -123 -60 -245 -190 -245 -146 0 -377 220 -451
430 -20 55 -23 85 -23 190 -1 184 33 274 186 503 140 210 196 357 170 446 -7
22 -28 59 -48 82 -59 71 -78 116 -78 189 -1 177 162 298 336 250 109 -31 225
-190 272 -374 l13 -50 26 70 c43 114 58 175 64 259 7 101 -6 150 -57 212 -56
67 -76 138 -62 217 30 161 190 255 343 201z m5986 -3779 c273 -59 479 -220
607 -473 20 -40 36 -75 36 -78 0 -3 -51 -5 -112 -5 l-113 0 -33 64 c-109 211
-311 329 -587 343 -473 24 -798 -336 -772 -856 7 -146 33 -250 94 -370 90
-180 253 -311 449 -361 95 -25 270 -27 374 -5 194 41 359 164 448 332 l27 53
113 0 112 0 -15 -37 c-104 -249 -307 -423 -590 -505 -71 -20 -100 -23 -260
-22 -207 1 -281 16 -422 83 -113 54 -186 106 -264 187 -152 160 -234 342 -260
581 -34 316 65 617 269 822 140 139 290 217 497 257 88 17 303 12 402 -10z
m2133 0 c369 -81 638 -367 711 -756 16 -87 17 -308 0 -395 -37 -200 -120 -364
-254 -502 -172 -178 -411 -275 -677 -274 -474 0 -844 308 -931 776 -16 87 -16
308 0 395 74 400 368 696 759 766 93 16 298 11 392 -10z m2221 -9 c358 -93
607 -370 679 -756 15 -80 15 -288 0 -372 -63 -359 -294 -638 -615 -742 -151
-49 -369 -63 -510 -33 -305 65 -550 260 -669 533 -121 276 -113 631 19 893 87
173 240 327 410 413 63 31 202 75 280 87 104 16 298 5 406 -23z m6260 17 c116
-20 231 -61 322 -115 83 -49 213 -170 261 -243 33 -50 106 -188 106 -200 0 -3
-51 -6 -113 -6 l-113 0 -22 46 c-86 176 -253 298 -470 343 -75 16 -238 14
-322 -4 -311 -65 -523 -306 -569 -648 -15 -107 -14 -185 4 -294 30 -182 97
-317 219 -438 133 -133 275 -193 477 -202 154 -7 253 12 374 72 219 109 357
315 389 577 l6 48 -403 2 -402 3 -3 78 -3 77 507 0 507 0 -6 -132 c-8 -170
-34 -274 -102 -407 -83 -164 -238 -317 -410 -403 -243 -123 -579 -120 -840 6
-388 187 -583 605 -504 1081 64 385 373 695 757 760 108 18 242 18 353 -1z
m-4989 -447 l3 -443 410 443 410 443 123 0 124 0 -214 -227 c-585 -624 -679
-725 -676 -733 2 -5 201 -219 443 -476 242 -257 442 -471 443 -476 2 -4 -52
-8 -120 -8 l-123 1 -410 438 -410 438 -5 -436 -5 -436 -97 -3 -98 -3 0 961 0
960 100 0 100 0 2 -443z m1578 -517 l0 -960 -95 0 -95 0 0 960 0 960 95 0 95
0 0 -960z m1180 163 l525 -797 3 797 2 797 100 0 100 0 0 -960 0 -960 -97 0
-98 0 -525 799 -525 799 -5 -796 -5 -797 -97 -3 -98 -3 0 961 0 960 98 0 97 0
525 -797z"/>
<path d="M5359 16260 c-629 -39 -1229 -276 -1813 -718 -554 -419 -883 -869
-963 -1316 -21 -119 -20 -316 1 -428 52 -273 187 -517 416 -749 152 -153 312
-276 495 -380 l60 -34 -100 -6 c-120 -8 -176 -24 -320 -94 -211 -102 -399
-262 -520 -444 -103 -155 -156 -298 -175 -469 -33 -303 94 -660 319 -896 158
-164 336 -243 571 -253 248 -10 489 62 782 234 26 15 49 25 51 23 2 -3 37
-129 76 -280 40 -151 74 -283 77 -292 5 -16 2 -16 -33 -4 -207 72 -424 -28
-531 -246 -67 -135 -77 -187 -76 -388 0 -156 3 -186 26 -271 84 -312 286 -553
564 -674 l73 -32 -102 -70 c-237 -164 -434 -378 -546 -592 -164 -315 -158
-652 19 -1027 104 -222 241 -377 441 -496 l56 -34 -99 -249 c-58 -148 -94
-251 -88 -255 5 -3 88 -14 182 -24 193 -20 218 -24 218 -37 0 -5 27 -66 60
-135 l59 -125 -31 -87 c-47 -136 -107 -266 -216 -469 -114 -215 -161 -327
-194 -467 l-23 -98 -82 -70 c-162 -137 -226 -228 -263 -374 -27 -104 -26 -133
8 -180 67 -92 248 -248 442 -382 166 -114 201 -143 370 -307 175 -170 259
-238 377 -305 205 -118 506 -188 688 -161 136 20 214 77 234 170 13 62 2 126
-45 265 -76 220 -189 409 -334 560 l-85 88 60 57 c90 84 190 156 285 205 146
76 138 76 265 -16 617 -446 1271 -815 1996 -1126 41 -17 47 -24 54 -58 17 -93
124 -265 193 -310 42 -27 121 -29 224 -4 197 47 349 149 613 414 187 189 286
310 443 545 219 328 324 613 339 916 5 108 3 126 -17 179 -39 101 -122 170
-235 194 -92 20 -267 23 -332 6 -118 -30 -257 -110 -398 -227 -44 -37 -82 -67
-85 -67 -24 0 -202 331 -315 585 -76 169 -195 463 -195 480 0 7 33 29 73 50
131 68 235 148 297 226 l37 48 -23 98 c-13 54 -32 157 -42 228 l-18 130 110 3
c61 2 140 -2 176 -8 77 -13 235 -86 333 -153 41 -29 67 -42 67 -33 0 47 -94
277 -133 324 -6 8 -6 16 -1 21 5 4 77 29 159 56 l151 47 84 -25 c253 -77 512
-107 910 -107 248 0 527 15 730 41 1068 134 2140 530 2775 1023 343 267 512
546 465 772 -67 323 -457 506 -1157 544 -439 24 -1013 -31 -1538 -146 -871
-191 -1582 -465 -2129 -818 l-110 -71 -215 1 c-162 0 -244 4 -328 18 l-113 18
65 73 65 73 93 22 c136 33 233 73 333 139 241 159 397 415 411 676 3 56 0 133
-6 175 -25 157 -127 401 -236 565 -43 64 -46 67 -41 35 23 -129 28 -186 24
-279 -5 -120 -27 -191 -82 -263 -33 -43 -112 -106 -121 -96 -3 2 0 75 5 160
31 491 -95 1157 -337 1773 -30 77 -59 155 -65 173 -5 19 -77 189 -159 378 -82
189 -149 346 -149 348 0 2 64 6 143 9 160 7 293 29 488 80 352 93 547 195 740
387 121 120 189 216 265 374 103 216 140 406 131 686 -4 117 -12 205 -25 265
-98 454 -372 826 -751 1019 -195 99 -360 142 -580 153 -311 14 -651 -78 -986
-266 l-90 -50 -22 134 c-25 152 -73 347 -109 437 -64 165 -213 383 -370 543
-531 542 -1330 842 -2115 795z m477 -421 c376 -37 768 -169 1088 -367 274
-169 531 -417 644 -622 68 -122 174 -436 217 -645 27 -131 68 -151 198 -94
379 167 765 248 1037 220 235 -25 429 -99 588 -227 502 -402 585 -1225 168
-1682 -114 -125 -258 -215 -501 -315 -278 -114 -670 -216 -722 -188 -53 28
-289 72 -488 91 -60 6 -113 14 -116 18 -4 4 -71 207 -149 452 -79 245 -146
450 -149 457 -7 13 -7 12 13 -532 8 -203 11 -373 7 -376 -3 -4 -83 -9 -177
-12 l-171 -6 -159 464 c-87 255 -160 462 -161 461 -2 -2 10 -211 27 -465 16
-253 30 -468 30 -475 0 -10 -16 -17 -47 -21 -27 -4 -97 -15 -158 -25 -60 -10
-111 -17 -111 -16 -1 0 -93 210 -204 466 -111 256 -204 467 -207 470 -3 3 -3
-17 1 -45 44 -335 115 -888 118 -914 l3 -34 -198 -49 c-110 -27 -200 -48 -201
-46 -1 2 -95 212 -209 468 -114 256 -207 460 -207 454 0 -7 18 -127 40 -268
69 -440 109 -731 102 -738 -4 -3 -47 -19 -97 -34 -49 -15 -143 -47 -209 -71
-114 -41 -136 -44 -136 -21 0 23 -473 885 -477 871 -2 -5 35 -229 82 -498 47
-270 85 -497 85 -506 0 -11 -43 -34 -132 -74 -243 -106 -592 -283 -703 -356
-174 -115 -376 -201 -575 -245 -107 -24 -298 -24 -375 0 -195 59 -344 212
-435 449 -124 321 -53 621 209 887 156 157 307 248 498 299 216 58 354 105
365 124 11 21 8 23 -147 145 -403 316 -671 659 -771 987 -25 82 -28 105 -28
255 -1 132 3 179 18 235 78 288 279 566 628 866 646 557 1303 833 1994 838 83
0 200 -4 260 -10z m2277 -4134 c121 -14 238 -36 309 -57 35 -10 39 -17 146
-237 61 -124 109 -227 107 -229 -1 -2 -43 8 -91 22 -363 104 -999 114 -1624
25 -507 -72 -1021 -206 -1459 -381 -343 -137 -750 -350 -964 -506 -26 -19 -50
-32 -53 -29 -3 2 -31 103 -63 223 l-58 219 36 23 c78 48 425 225 576 293 814
365 1718 601 2487 649 171 11 495 3 651 -15z m147 -676 c148 -12 351 -51 428
-82 l55 -22 52 -130 c242 -604 368 -1244 344 -1735 -10 -198 -17 -250 -38
-250 -36 0 -124 65 -231 171 -310 305 -608 386 -865 234 -122 -72 -196 -184
-199 -299 l-1 -61 -36 55 c-106 165 -336 290 -532 290 -120 0 -293 -47 -437
-120 -155 -78 -274 -166 -500 -370 -334 -302 -481 -371 -694 -329 -122 25
-215 112 -258 243 -20 61 -23 91 -22 206 0 158 16 228 75 338 42 79 41 80 -44
13 -145 -112 -230 -288 -244 -501 -27 -439 242 -877 648 -1052 181 -78 330
-103 567 -95 370 11 729 140 1042 372 227 169 427 417 461 572 7 29 14 51 17
49 2 -3 14 -34 27 -70 82 -235 291 -429 570 -529 64 -22 116 -33 258 -55 l49
-7 -89 -67 c-117 -88 -238 -160 -343 -202 -141 -56 -141 -56 -205 5 -30 28
-55 55 -55 58 0 4 22 24 50 44 61 46 100 102 107 156 3 23 3 41 1 41 -3 0 -25
-20 -49 -44 -69 -68 -212 -112 -399 -123 -121 -7 -199 8 -245 48 -37 33 -51
26 -40 -19 11 -45 52 -89 110 -117 l55 -27 -31 -58 c-36 -68 -132 -187 -157
-194 -34 -10 -249 -46 -367 -61 -532 -68 -1065 13 -1482 226 -203 104 -344
210 -508 381 -155 162 -277 346 -363 548 -38 89 -92 256 -92 285 0 8 -22 18
-57 25 -188 36 -318 99 -419 200 -152 152 -233 350 -234 576 -1 200 58 326
184 392 44 23 63 27 136 27 79 -1 90 -3 157 -39 50 -26 94 -61 138 -107 57
-61 68 -68 85 -59 11 6 20 14 20 19 0 17 -98 158 -149 214 -29 31 -48 57 -43
57 6 0 58 32 117 71 495 326 1167 600 1845 753 608 138 1316 198 1830 155z
m5154 -2702 c43 -27 96 -99 96 -132 0 -29 -18 -45 -51 -45 -20 0 -33 9 -49 35
-26 42 -57 65 -87 65 -29 0 -85 -50 -117 -104 -86 -147 -246 -191 -325 -90
-25 32 -27 61 -4 86 23 25 38 23 75 -12 17 -16 39 -30 48 -30 32 0 85 45 125
107 54 82 70 98 119 122 56 28 121 27 170 -2z m-1481 -14 c85 -34 103 -114 40
-184 -123 -136 -428 -162 -491 -42 -78 146 244 307 451 226z m682 -14 c127
-32 135 -135 17 -220 -139 -99 -392 -127 -488 -54 -101 77 -6 199 206 266 64
20 201 24 265 8z m-8046 -116 c147 -284 409 -566 708 -764 296 -195 713 -347
1081 -395 28 -4 52 -9 52 -13 -1 -3 -26 -22 -57 -41 -84 -53 -202 -168 -300
-293 -241 -310 -475 -539 -626 -613 l-56 -28 36 -24 c54 -37 196 -91 293 -112
270 -58 539 -22 779 106 46 24 85 44 87 44 2 0 4 -93 4 -206 l0 -207 -267 6
c-602 14 -1028 99 -1433 287 l-105 48 -205 22 c-112 11 -206 23 -209 25 -5 5
50 144 192 485 140 335 357 872 357 881 0 16 -24 9 -95 -27 -182 -93 -292
-234 -376 -483 -41 -120 -122 -311 -132 -311 -16 0 -151 117 -219 189 -119
126 -192 308 -204 511 -8 133 12 245 64 348 80 161 294 403 497 562 49 38 92
70 95 70 3 0 20 -30 39 -67z m6231 -248 c36 -19 54 -52 70 -128 11 -53 15 -60
47 -73 48 -20 88 -10 119 32 57 74 126 16 77 -66 -9 -15 -33 -37 -53 -49 -115
-65 -254 -14 -281 104 -21 92 -23 95 -74 95 -39 0 -51 -6 -89 -40 -24 -22 -53
-40 -64 -40 -25 0 -52 25 -52 48 0 28 56 88 102 111 52 26 154 29 198 6z
m2495 -55 c37 -31 12 -81 -58 -117 -43 -22 -66 -27 -129 -27 -67 -1 -80 2
-100 21 -31 32 -16 69 44 106 71 44 200 53 243 17z m-1628 -19 c70 -43 46
-106 -61 -161 -66 -33 -74 -35 -172 -35 -95 0 -104 2 -128 24 -14 14 -26 31
-26 38 0 50 71 110 163 138 67 21 186 19 224 -4z m1284 -162 c56 -32 83 -69
81 -113 -5 -127 -193 -236 -407 -236 -102 0 -164 20 -205 66 -88 101 22 235
244 295 99 27 227 21 287 -12z m-996 -83 c21 -31 9 -56 -39 -84 -42 -25 -69
-63 -60 -86 10 -25 46 -36 124 -36 192 0 278 -162 146 -278 -40 -35 -66 -40
-90 -16 -24 24 -19 48 19 87 40 41 43 57 15 82 -15 14 -45 20 -121 26 -110 9
-138 20 -169 72 -50 81 -26 162 63 222 61 41 91 44 112 11z m-1467 -1 c59 -18
92 -53 92 -100 0 -114 -261 -249 -447 -232 -74 7 -147 36 -162 65 -78 146 288
335 517 267z m-1764 -95 c99 -27 324 -60 414 -60 39 0 72 -2 72 -5 0 -3 -25
-36 -56 -73 -115 -139 -177 -320 -156 -450 14 -85 61 -179 117 -236 l44 -46
-82 -25 -82 -24 -135 132 c-75 73 -174 159 -221 192 l-86 60 -6 110 c-4 61 -7
167 -7 236 l0 127 48 41 c26 22 50 40 54 41 4 0 41 -9 82 -20z m2808 -175 c27
-9 59 -31 74 -48 54 -64 15 -152 -99 -226 -257 -166 -660 -134 -623 51 19 95
178 198 361 234 86 17 224 11 287 -11z m-3236 -222 c-4 -4 -63 22 -75 33 -3 3
13 23 35 45 l39 40 3 -57 c2 -31 1 -58 -2 -61z m2291 38 c150 -69 46 -230
-169 -264 -164 -25 -269 55 -214 162 48 93 271 152 383 102z m-3232 -721 l136
-71 67 59 c37 32 73 62 79 66 7 4 42 -14 84 -43 114 -81 355 -163 558 -191 41
-6 76 -12 78 -13 5 -5 56 -352 57 -386 1 -31 -5 -38 -64 -79 -143 -98 -379
-189 -613 -236 -248 -50 -653 -96 -854 -96 l-73 0 0 378 0 377 99 72 c54 40
143 109 197 153 55 44 102 80 105 80 4 0 68 -32 144 -70z m-2369 -821 c377
-142 859 -219 1386 -223 l198 -1 0 -82 0 -82 58 -8 c108 -15 526 -9 687 11
202 24 419 61 540 92 55 14 108 27 118 28 15 1 34 -35 96 -189 189 -464 343
-770 473 -943 35 -47 38 -55 26 -71 -175 -240 -256 -374 -344 -571 -47 -106
-127 -329 -160 -447 l-9 -32 -105 45 c-156 67 -601 290 -790 395 -777 434
-1400 899 -1808 1349 -189 208 -393 490 -520 717 -29 51 -52 95 -52 97 0 2 24
-7 53 -21 28 -14 98 -43 153 -64z m-256 -436 c78 -116 183 -254 280 -368 123
-144 404 -424 557 -553 l122 -104 -67 -35 c-102 -54 -215 -138 -327 -245
l-103 -98 -53 0 c-116 0 -346 74 -565 181 -118 57 -155 81 -217 139 -85 79
-89 90 -75 218 16 149 69 287 217 567 56 105 118 229 138 278 20 48 40 87 43
87 3 0 25 -31 50 -67z"/>
<path d="M8062 10770 c-259 -68 -411 -281 -389 -545 10 -118 182 -707 243
-831 16 -32 24 -39 49 -39 l30 0 3 90 c4 102 -12 353 -34 530 -9 66 -18 161
-21 211 -10 158 29 235 142 285 62 28 224 38 317 19 125 -24 260 -94 365 -191
75 -69 114 -44 87 57 -38 149 -158 291 -305 362 -46 23 -111 49 -144 57 -84
21 -251 19 -343 -5z"/>
<path d="M6363 10660 c-146 -15 -265 -72 -369 -176 -85 -84 -144 -194 -168
-316 -20 -97 -20 -128 0 -156 17 -25 66 -30 83 -9 6 6 42 51 81 98 75 94 165
169 247 205 159 71 459 52 643 -41 66 -34 124 -34 146 0 15 23 14 28 -10 81
-36 78 -159 199 -246 241 -126 61 -269 87 -407 73z"/>
<path d="M8351 10096 c-53 -19 -107 -71 -138 -133 -83 -170 27 -362 210 -363
55 0 55 1 33 113 -7 37 -12 67 -12 67 1 0 37 -11 81 -25 103 -32 111 -32 124
6 30 87 -1 208 -71 276 -70 69 -146 88 -227 59z"/>
<path d="M6479 9947 c-50 -27 -111 -101 -128 -157 -42 -141 29 -282 162 -319
24 -7 59 -11 78 -9 l34 3 -2 88 c-1 63 2 87 10 84 96 -36 139 -48 150 -44 20
8 39 93 31 140 -10 62 -31 104 -77 154 -76 83 -172 105 -258 60z"/>
<path d="M4209 9756 c-59 -21 -109 -56 -140 -99 l-29 -41 28 -18 c29 -18 29
-18 88 17 119 72 200 32 299 -147 20 -37 34 -71 31 -76 -3 -5 -20 -12 -38 -16
-85 -17 -158 -113 -158 -208 0 -136 100 -248 223 -248 25 0 27 3 27 39 0 33
-4 40 -30 51 -93 38 -133 186 -67 248 26 24 104 61 130 62 21 0 22 30 2 122
-32 155 -127 280 -235 312 -64 19 -83 19 -131 2z m329 -386 c-11 -18 -28 -27
-28 -16 0 2 -3 11 -6 20 -5 12 0 16 20 16 24 0 25 -2 14 -20z"/>
<path d="M7787 8129 c-52 -12 -115 -46 -143 -76 -86 -93 80 -185 251 -139 184
49 223 166 70 212 -53 15 -120 17 -178 3z"/>
<path d="M11751 8249 c-95 -16 -201 -77 -201 -116 0 -27 70 -46 147 -40 104 8
233 71 233 114 0 35 -89 56 -179 42z"/>
<path d="M12693 7635 c-114 -25 -223 -99 -223 -149 0 -49 152 -72 270 -42 120
31 210 92 210 142 0 52 -133 78 -257 49z"/>
<path d="M10415 7093 c-72 -16 -145 -61 -145 -89 0 -21 67 -37 124 -29 78 10
186 65 186 95 0 23 -102 37 -165 23z"/>
<path d="M7007 6246 c-66 -24 -97 -66 -97 -133 0 -80 64 -137 156 -137 41 0
59 5 89 28 45 35 69 87 60 133 -8 45 -59 100 -103 113 -47 13 -58 12 -105 -4z"/>
<path d="M6972 5829 c-43 -28 -62 -67 -62 -125 0 -40 5 -51 38 -84 65 -66 155
-66 224 -2 68 64 59 156 -21 209 -46 31 -132 32 -179 2z"/>
<path d="M21750 11786 l0 -826 328 0 c362 0 449 9 580 60 278 108 478 346 538
640 20 100 15 268 -12 365 -73 271 -285 469 -590 551 -97 26 -106 27 -471 31
l-373 5 0 -826z"/>
<path d="M25988 11332 c-213 -499 -390 -915 -394 -924 -6 -17 38 -18 826 -18
788 0 832 1 827 18 -13 48 -852 1832 -861 1832 -6 0 -185 -409 -398 -908z"/>
<path d="M11245 11265 c-41 -40 -34 -77 30 -161 49 -64 69 -133 68 -239 -1
-173 -41 -308 -173 -585 -112 -232 -134 -304 -134 -430 -1 -103 16 -169 62
-250 50 -88 185 -209 218 -196 26 10 15 33 -36 72 -116 89 -177 221 -168 368
7 111 41 201 137 365 147 251 222 441 243 619 10 87 9 112 -6 188 -20 105 -55
182 -106 235 -46 48 -96 54 -135 14z"/>
<path d="M11882 10985 c-31 -14 -52 -47 -52 -85 0 -10 20 -45 45 -78 70 -93
85 -133 85 -233 0 -150 -48 -268 -203 -499 -134 -200 -177 -326 -156 -460 20
-131 99 -253 221 -345 59 -44 97 -54 105 -28 2 6 -23 32 -56 57 -111 86 -171
177 -193 294 -24 130 19 238 174 437 192 248 258 397 258 584 0 122 -52 261
-123 329 -41 38 -64 44 -105 27z"/>
<path d="M11641 10747 c-26 -168 -111 -378 -246 -606 -127 -216 -152 -323 -99
-429 22 -44 94 -122 113 -122 3 0 6 51 6 113 1 169 39 270 187 490 181 270
217 419 128 521 -16 18 -40 51 -53 74 l-23 41 -13 -82z"/>
<path d="M10680 10742 c-37 -19 -56 -58 -46 -96 3 -13 22 -44 42 -67 62 -74
84 -132 84 -224 0 -154 -47 -270 -207 -511 -75 -114 -108 -173 -129 -235 -66
-197 -14 -378 149 -524 72 -64 118 -91 141 -82 27 10 19 24 -43 71 -78 60
-125 116 -164 195 -28 58 -31 73 -31 155 0 134 33 203 187 396 99 125 162 229
205 343 44 116 55 257 27 353 -33 114 -105 221 -160 238 -11 3 -36 -2 -55 -12z"/>
<path d="M19145 7519 c-359 -67 -590 -345 -612 -740 -12 -224 45 -431 162
-587 65 -86 132 -143 224 -191 119 -62 210 -83 361 -83 151 0 242 21 361 83
258 135 406 432 386 778 -23 401 -254 675 -621 740 -70 13 -191 12 -261 0z"/>
<path d="M21335 7518 c-248 -46 -427 -180 -531 -397 -63 -131 -78 -204 -78
-396 -1 -193 15 -278 79 -407 130 -263 360 -401 665 -400 414 2 695 269 740
707 47 460 -201 821 -614 894 -71 13 -191 12 -261 -1z"/>
</g>
</svg>
